# xmcd CD database file
#
# Track frame offsets:
#	150
#	10140
#	21044
#	33497
#	43608
#	55475
#	65615
#	77423
#	87554
#	100219
#	109587
#	122789
#	133989
#	145430
#	156058
#	167968
#	178938
#	190935
#
# Disc length: 2710 seconds
#
# Revision: 0
# Processed by: cddbd v1.5.2PL0 Copyright (c) Steve Scherf et al.
# Submitted via: CDex 1.70beta2
#
DISCID=fe0a9412
DTITLE=Conway Twitty - It's only make believe the MGM years
DYEAR=2008
DGENRE=Country
TTITLE0=It's Only Make Believe
TTITLE1=Mona Lisa
TTITLE2=danny Boy
TTITLE3=lonely Blue Boy
TTITLE4=What Am I Living For
TTITLE5=Knock Three Times
TTITLE6=Is A Bluebird Blue?
TTITLE7=C'est Si Bon (It's So Good)
TTITLE8=Long Black Train
TTITLE9=The Last Kiss (Is The Last Kiss Goodbye)
TTITLE10=I'm In A Blue, Blue Mood
TTITLE11=It's Driving Me Wild
TTITLE12=There Is Something On Your Mind
TTITLE13=It's Too Late
TTITLE14=Don't Cry No More
TTITLE15=The Pickup
TTITLE16=She Ain't No Angel
TTITLE17=Rosaleena
EXTD=YEAR: 2008
EXTT0=
EXTT1=
EXTT2=
EXTT3=
EXTT4=
EXTT5=
EXTT6=
EXTT7=
EXTT8=
EXTT9=
EXTT10=
EXTT11=
EXTT12=
EXTT13=
EXTT14=
EXTT15=
EXTT16=
EXTT17=
PLAYORDER=
